<?xml version="1.0" encoding="utf-8"?>
<!-- Generator: Adobe Illustrator 24.3.0, SVG Export Plug-In . SVG Version: 6.00 Build 0)  -->
<svg version="1.1" id="Layer_1" xmlns="http://www.w3.org/2000/svg" xmlns:xlink="http://www.w3.org/1999/xlink" x="0px" y="0px"
	 viewBox="0 0 798.96 197.67" style="enable-background:new 0 0 798.96 197.67;" xml:space="preserve">
<g>
	<g>
		<path d="M218.59,115.97v18.24c0,7.39-1.4,14.45-3.95,20.94v-2.07c0-34.6-28.05-62.65-62.65-62.65H73.95
			c-23.46,0-42.48-19.02-42.48-42.49c0-11.73,4.75-22.35,12.44-30.04C51.6,10.22,62.22,5.46,73.95,5.46H211.3v0
			c0.52,11.99-18.16,33.88-39.88,33.88H82.81c-2.66,0-5.07,1.08-6.81,2.83c-1.89,1.88-3,4.55-2.81,7.48
			c0.34,5.11,4.79,8.98,9.9,8.98h78.16c22.48,0,41.95,12.95,51.34,31.8C216.43,98.12,218.59,106.79,218.59,115.97z"/>
		<path d="M8.04,81.7V63.46c0-7.39,1.4-14.45,3.95-20.94v2.07c0,34.6,28.05,62.65,62.65,62.65h78.04
			c23.46,0,42.48,19.02,42.48,42.49c0,11.73-4.75,22.35-12.44,30.04c-7.69,7.68-18.31,12.44-30.04,12.44H15.33v0
			c-0.52-11.99,18.16-33.88,39.88-33.88h88.61c2.66,0,5.07-1.08,6.81-2.83c1.89-1.88,3-4.55,2.81-7.48
			c-0.34-5.11-4.79-8.98-9.9-8.98H65.37c-22.48,0-41.95-12.95-51.34-31.8C10.2,99.55,8.04,90.88,8.04,81.7z"/>
	</g>
	<g>
		<path d="M330.43,42.61h-27.72v-8.51c0-3.97-0.35-6.5-1.06-7.59c-0.71-1.09-1.89-1.63-3.54-1.63c-1.8,0-3.15,0.73-4.08,2.2
			c-0.92,1.47-1.38,3.69-1.38,6.67c0,3.83,0.52,6.72,1.55,8.65c0.99,1.94,3.8,4.28,8.43,7.02c13.29,7.89,21.65,14.36,25.1,19.41
			c3.45,5.06,5.18,13.21,5.18,24.46c0,8.18-0.96,14.2-2.87,18.08c-1.91,3.88-5.61,7.12-11.09,9.75c-5.48,2.62-11.86,3.93-19.14,3.93
			c-7.99,0-14.81-1.51-20.45-4.54c-5.65-3.02-9.35-6.88-11.1-11.56c-1.75-4.68-2.62-11.32-2.62-19.92v-7.52h27.72V95.5
			c0,4.3,0.39,7.07,1.17,8.29c0.78,1.23,2.16,1.84,4.15,1.84c1.98,0,3.46-0.78,4.43-2.34c0.97-1.56,1.45-3.87,1.45-6.95
			c0-6.76-0.92-11.18-2.77-13.26c-1.89-2.08-6.55-5.55-13.97-10.42c-7.42-4.92-12.34-8.48-14.75-10.71
			c-2.41-2.22-4.41-5.29-5.99-9.22c-1.58-3.92-2.38-8.93-2.38-15.03c0-8.79,1.12-15.22,3.37-19.28c2.24-4.06,5.87-7.24,10.88-9.54
			c5.01-2.29,11.06-3.44,18.15-3.44c7.75,0,14.36,1.25,19.82,3.76c5.46,2.51,9.07,5.66,10.85,9.46c1.77,3.81,2.66,10.27,2.66,19.39
			V42.61z"/>
		<path d="M374.3,7.88v114.78h-29.85V7.88H374.3z"/>
		<path d="M388.46,7.88h22.33c14.42,0,24.16,0.66,29.24,1.99c5.08,1.32,8.94,3.5,11.59,6.52c2.65,3.03,4.3,6.39,4.96,10.1
			c0.66,3.71,0.99,11,0.99,21.87v40.2c0,10.3-0.49,17.19-1.45,20.67c-0.97,3.47-2.66,6.19-5.07,8.15c-2.41,1.96-5.39,3.33-8.93,4.11
			c-3.54,0.78-8.89,1.17-16.02,1.17h-37.65V7.88z M418.3,27.51v75.5c4.3,0,6.95-0.86,7.94-2.59c0.99-1.72,1.49-6.42,1.49-14.07
			V41.76c0-5.2-0.17-8.53-0.5-10c-0.33-1.46-1.09-2.54-2.27-3.23C423.79,27.86,421.56,27.51,418.3,27.51z"/>
		<path d="M470.89,7.88h22.33c14.42,0,24.16,0.66,29.24,1.99c5.08,1.32,8.94,3.5,11.59,6.52c2.65,3.03,4.3,6.39,4.96,10.1
			c0.66,3.71,0.99,11,0.99,21.87v40.2c0,10.3-0.48,17.19-1.45,20.67s-2.66,6.19-5.07,8.15c-2.41,1.96-5.39,3.33-8.93,4.11
			c-3.54,0.78-8.88,1.17-16.02,1.17h-37.65V7.88z M500.73,27.51v75.5c4.3,0,6.95-0.86,7.94-2.59c0.99-1.72,1.49-6.42,1.49-14.07
			V41.76c0-5.2-0.17-8.53-0.5-10c-0.33-1.46-1.09-2.54-2.27-3.23C506.22,27.86,503.99,27.51,500.73,27.51z"/>
		<path d="M583.16,7.88v114.78h-29.85V7.88H583.16z"/>
		<path d="M665.59,122.65v13.9h-22.54c-5.44,0-9.26-0.42-11.49-1.26c-2.22-0.84-3.72-2.08-4.5-3.73c-0.78-1.65-1.17-4.62-1.17-8.91
			c-6.76-0.19-12.57-1.96-17.44-5.32c-4.87-3.36-8.08-7.62-9.64-12.8c-1.56-5.18-2.34-12.91-2.34-23.22V45.8
			c0-7.8,0.46-13.74,1.38-17.83c0.92-4.09,2.82-7.94,5.71-11.56c2.88-3.62,6.59-6.35,11.13-8.19s9.57-2.76,15.1-2.76
			c6.66,0,12.61,1.13,17.83,3.4c5.22,2.27,9.12,5.15,11.7,8.65s4.25,7.12,5.03,10.88c0.78,3.76,1.17,9.34,1.17,16.76v37.28
			c0,10.21-0.5,17.13-1.49,20.77s-2.9,6.53-5.71,8.68c-2.81,2.15-6.56,3.79-11.24,4.93c0.14,2.57,0.67,4.18,1.59,4.85s3.11,1,6.56,1
			H665.59z M635.68,37.37c0-5.34-0.3-8.76-0.89-10.24c-0.59-1.49-1.81-2.23-3.65-2.23c-1.56,0-2.75,0.6-3.58,1.81
			s-1.24,4.76-1.24,10.67v53.6c0,6.66,0.27,10.78,0.82,12.34c0.54,1.56,1.81,2.34,3.79,2.34c2.03,0,3.33-0.9,3.9-2.69
			c0.57-1.8,0.85-6.07,0.85-12.83V37.37z"/>
		<path d="M746.68,7.88v76.71c0,8.7-0.28,14.81-0.85,18.33c-0.57,3.52-2.25,7.14-5.03,10.85c-2.79,3.71-6.46,6.52-11.02,8.44
			c-4.56,1.91-9.94,2.87-16.13,2.87c-6.85,0-12.9-1.13-18.15-3.4c-5.25-2.27-9.17-5.22-11.77-8.86c-2.6-3.64-4.14-7.48-4.61-11.52
			s-0.71-12.54-0.71-25.49V7.88h29.85v86.07c0,5.01,0.27,8.21,0.81,9.61c0.54,1.39,1.64,2.09,3.3,2.09c1.89,0,3.11-0.77,3.65-2.3
			c0.54-1.54,0.82-5.16,0.82-10.88V7.88H746.68z"/>
		<path d="M790.26,7.88v114.78h-29.85V7.88H790.26z"/>
	</g>
	<g>
		<path d="M291.62,178.73l4.85,1.22c-1.02,3.98-2.85,7.02-5.49,9.12c-2.64,2.09-5.87,3.14-9.69,3.14c-3.95,0-7.16-0.8-9.64-2.41
			c-2.48-1.61-4.36-3.94-5.65-6.99s-1.94-6.33-1.94-9.83c0-3.82,0.73-7.15,2.19-9.99c1.46-2.84,3.53-5,6.23-6.48
			c2.69-1.48,5.66-2.21,8.89-2.21c3.67,0,6.75,0.94,9.25,2.8c2.5,1.87,4.24,4.49,5.23,7.88l-4.78,1.12
			c-0.85-2.67-2.08-4.61-3.7-5.83c-1.62-1.21-3.65-1.82-6.1-1.82c-2.82,0-5.17,0.68-7.06,2.03c-1.89,1.35-3.22,3.16-3.99,5.44
			c-0.77,2.28-1.15,4.62-1.15,7.04c0,3.12,0.45,5.84,1.36,8.16c0.91,2.33,2.32,4.06,4.24,5.21c1.92,1.15,3.99,1.72,6.23,1.72
			c2.72,0,5.02-0.78,6.9-2.35C289.67,184.14,290.95,181.82,291.62,178.73z"/>
		<path d="M326.58,173.73c0-6.09,1.63-10.85,4.9-14.29c3.27-3.44,7.49-5.16,12.65-5.16c3.38,0,6.44,0.81,9.15,2.43
			c2.72,1.62,4.79,3.87,6.21,6.76c1.43,2.89,2.14,6.17,2.14,9.84c0,3.72-0.75,7.04-2.25,9.98s-3.63,5.16-6.38,6.66
			c-2.75,1.51-5.72,2.26-8.9,2.26c-3.45,0-6.54-0.83-9.25-2.5c-2.72-1.67-4.78-3.94-6.18-6.83S326.58,176.95,326.58,173.73z
			 M331.58,173.8c0,4.42,1.19,7.9,3.56,10.44c2.38,2.54,5.36,3.81,8.94,3.81c3.65,0,6.66-1.28,9.02-3.85
			c2.36-2.57,3.54-6.21,3.54-10.93c0-2.98-0.5-5.59-1.51-7.81c-1.01-2.22-2.48-3.95-4.43-5.18c-1.94-1.22-4.12-1.84-6.54-1.84
			c-3.43,0-6.39,1.18-8.86,3.54C332.82,164.35,331.58,168.29,331.58,173.8z"/>
		<path d="M393.35,191.58v-36.66h7.3l8.68,25.96c0.8,2.42,1.38,4.23,1.75,5.43c0.42-1.33,1.07-3.29,1.95-5.88l8.78-25.51h6.53v36.66
			h-4.68V160.9L413,191.58h-4.38l-10.6-31.21v31.21H393.35z"/>
		<path d="M461.77,191.58v-36.66h13.83c2.43,0,4.29,0.12,5.58,0.35c1.8,0.3,3.31,0.87,4.53,1.71c1.22,0.84,2.2,2.02,2.94,3.54
			c0.74,1.52,1.11,3.18,1.11,5c0,3.12-0.99,5.76-2.98,7.92c-1.98,2.16-5.57,3.24-10.75,3.24h-9.4v14.9H461.77z M466.62,172.35h9.48
			c3.13,0,5.36-0.58,6.68-1.75c1.32-1.17,1.98-2.81,1.98-4.93c0-1.53-0.39-2.85-1.16-3.94s-1.8-1.81-3.06-2.16
			c-0.82-0.22-2.33-0.32-4.53-0.32h-9.38V172.35z"/>
		<path d="M545.59,154.92h4.85v21.18c0,3.69-0.42,6.61-1.25,8.78c-0.83,2.17-2.34,3.93-4.51,5.29c-2.18,1.36-5.03,2.04-8.57,2.04
			c-3.43,0-6.24-0.59-8.43-1.78c-2.18-1.18-3.74-2.9-4.68-5.14s-1.4-5.31-1.4-9.19v-21.18h4.85v21.16c0,3.19,0.3,5.53,0.89,7.04
			c0.59,1.51,1.61,2.67,3.05,3.49c1.44,0.82,3.21,1.22,5.29,1.22c3.57,0,6.11-0.81,7.63-2.43c1.52-1.62,2.28-4.73,2.28-9.33V154.92z
			"/>
		<path d="M593.45,191.58v-32.33h-12.08v-4.33h29.06v4.33h-12.13v32.33H593.45z"/>
		<path d="M641.12,191.58v-36.66h26.51v4.33h-21.66v11.23h20.28v4.3h-20.28v12.48h22.51v4.33H641.12z"/>
		<path d="M700.86,191.58v-36.66h16.25c3.27,0,5.75,0.33,7.45,0.99c1.7,0.66,3.06,1.82,4.08,3.49c1.02,1.67,1.53,3.51,1.53,5.53
			c0,2.6-0.84,4.79-2.53,6.58c-1.68,1.79-4.28,2.92-7.8,3.4c1.28,0.62,2.26,1.22,2.93,1.82c1.42,1.3,2.76,2.93,4.03,4.88l6.38,9.98
			h-6.1l-4.85-7.63c-1.42-2.2-2.58-3.88-3.5-5.05c-0.92-1.17-1.74-1.98-2.46-2.45c-0.72-0.46-1.46-0.79-2.21-0.97
			c-0.55-0.12-1.45-0.17-2.7-0.17h-5.63v16.28H700.86z M705.71,171.1h10.43c2.22,0,3.95-0.23,5.2-0.69c1.25-0.46,2.2-1.19,2.85-2.2
			c0.65-1.01,0.97-2.11,0.97-3.29c0-1.73-0.63-3.16-1.89-4.28s-3.25-1.68-5.96-1.68h-11.6V171.1z"/>
		<path d="M761.73,179.81l4.58-0.4c0.22,1.83,0.72,3.34,1.51,4.51c0.79,1.18,2.02,2.13,3.69,2.85s3.54,1.09,5.63,1.09
			c1.85,0,3.48-0.28,4.9-0.83c1.42-0.55,2.47-1.3,3.16-2.26c0.69-0.96,1.04-2.01,1.04-3.14c0-1.15-0.33-2.15-1-3.01
			c-0.67-0.86-1.77-1.58-3.3-2.16c-0.98-0.38-3.16-0.98-6.53-1.79s-5.73-1.57-7.08-2.29c-1.75-0.92-3.05-2.05-3.91-3.41
			c-0.86-1.36-1.29-2.88-1.29-4.56c0-1.85,0.53-3.58,1.58-5.19c1.05-1.61,2.58-2.83,4.6-3.66c2.02-0.83,4.26-1.25,6.73-1.25
			c2.72,0,5.11,0.44,7.19,1.31c2.08,0.88,3.67,2.16,4.79,3.86c1.12,1.7,1.72,3.62,1.8,5.78l-4.65,0.35
			c-0.25-2.32-1.1-4.07-2.54-5.25c-1.44-1.18-3.57-1.78-6.39-1.78c-2.93,0-5.07,0.54-6.41,1.61c-1.34,1.07-2.01,2.37-2.01,3.89
			c0,1.32,0.48,2.4,1.43,3.25c0.93,0.85,3.37,1.72,7.31,2.61c3.94,0.89,6.65,1.67,8.12,2.34c2.13,0.98,3.71,2.23,4.73,3.74
			c1.02,1.51,1.53,3.25,1.53,5.21c0,1.95-0.56,3.79-1.68,5.51c-1.12,1.73-2.72,3.07-4.81,4.03c-2.09,0.96-4.45,1.44-7.06,1.44
			c-3.32,0-6.1-0.48-8.34-1.45s-4-2.42-5.28-4.36S761.8,182.26,761.73,179.81z"/>
	</g>
</g>
</svg>
